<svg xmlns="http://www.w3.org/2000/svg" width="140" height="140" viewBox="0 0 140 140">
  <g id="Group_3758" data-name="Group 3758" transform="translate(-876 -2576)">
    <rect id="Rectangle_3290" data-name="Rectangle 3290" width="140" height="140" transform="translate(876 2576)" fill="#195283" opacity="0.003"/>
    <g id="conversation" transform="translate(895 2584.583)">
      <path id="Path_15931" data-name="Path 15931" d="M5.474,69.318a6.592,6.592,0,0,0,12.777-2.261V63.391a7.552,7.552,0,0,1-3.558-.578,12.265,12.265,0,0,1-.306,1.213,7.886,7.886,0,0,1-2.5,3.927,7.311,7.311,0,0,1-5.162,1.5,11.24,11.24,0,0,1-1.247-.13ZM44.311,59.5h13.18V55.356H47.343a3.047,3.047,0,0,0-3.031,3.032Zm13.18,3H44.311v4.561a6.59,6.59,0,0,0,13.18,0V62.5ZM98.572,72.5a7.139,7.139,0,0,1,2.1,1.689,7.022,7.022,0,0,1,1.677,4.556V88.855a1.5,1.5,0,0,1-3,0V78.746a4.049,4.049,0,0,0-.963-2.623,4.118,4.118,0,0,0-2.074-1.315A9.54,9.54,0,0,1,84.9,74.689a2.863,2.863,0,0,0-.884.249,2.743,2.743,0,0,0-1.02.833L74.943,86.436a1.505,1.505,0,0,1-1.2.6H63.43a2.762,2.762,0,1,0,0,5.524H75.754a2.693,2.693,0,0,0,1.343-.289,8.88,8.88,0,0,0,2.283-2.555l5.332-7.054a1.495,1.495,0,1,1,2.385,1.8l-5.071,6.72V104.25H99.349V95.643a1.5,1.5,0,0,1,3,0v10.109a1.494,1.494,0,0,1-1.5,1.5H1.5a1.5,1.5,0,0,1-1.5-1.5V95.643a1.5,1.5,0,0,1,3,0v8.607H20.325V91.184l-5.077-6.72a1.5,1.5,0,0,1,2.391-1.8l5.213,6.9q.714.943,1.428,1.9a2.758,2.758,0,0,0,.975.81,2.622,2.622,0,0,0,1.252.289H38.922a2.762,2.762,0,1,0,0-5.524H28.6a1.5,1.5,0,0,1-1.2-.6L19.351,75.772a2.772,2.772,0,0,0-1.9-1.082,9.551,9.551,0,0,1-11.412.125,4.109,4.109,0,0,0-2.051,1.281A4.059,4.059,0,0,0,3,78.747V88.855a1.5,1.5,0,0,1-3,0V78.747A7.043,7.043,0,0,1,1.723,74.14,7.216,7.216,0,0,1,3.78,72.5a9.508,9.508,0,0,1-1.706-5.445V58.388A6.036,6.036,0,0,1,8.1,52.359H15.22a6.036,6.036,0,0,1,6.029,6.029v8.669A9.524,9.524,0,0,1,19.7,72.276a5.8,5.8,0,0,1,2.046,1.694l7.6,10.063h6v-6.08a6.253,6.253,0,0,1,2.391-4.6A15.756,15.756,0,0,1,42.05,70.74a9.518,9.518,0,0,1-.736-3.683v-8.67a6.036,6.036,0,0,1,6.029-6.029h11.65a1.5,1.5,0,0,1,1.5,1.5v13.2a9.589,9.589,0,0,1-.663,3.5,16.316,16.316,0,0,1,4.635,2.663,6.352,6.352,0,0,1,2.538,4.737v6.08h6L80.6,73.97a5.739,5.739,0,0,1,2.051-1.689A9.516,9.516,0,0,1,81.1,67.057V58.387a6.036,6.036,0,0,1,6.029-6.029h7.123a6.036,6.036,0,0,1,6.029,6.029v8.669A9.552,9.552,0,0,1,98.572,72.5Zm-1.7-3.185a11.1,11.1,0,0,1-1.247.13,7.306,7.306,0,0,1-5.156-1.5,7.856,7.856,0,0,1-2.51-3.927,12.246,12.246,0,0,1-.3-1.213,7.581,7.581,0,0,1-3.564.578v3.666a6.591,6.591,0,0,0,12.778,2.261Zm-12.778-8.93a4.885,4.885,0,0,0,3.723-1.105,1.516,1.516,0,0,1,.975-.419,1.491,1.491,0,0,1,1.564,1.422,11.943,11.943,0,0,0,.465,2.861,4.964,4.964,0,0,0,1.519,2.476,4.5,4.5,0,0,0,3.145.839,10.792,10.792,0,0,0,1.8-.261V58.387a3.057,3.057,0,0,0-3.031-3.032H87.126a3.057,3.057,0,0,0-3.031,3.032Zm-65.843,0v-2a3.047,3.047,0,0,0-3.031-3.032H8.1a3.047,3.047,0,0,0-3.026,3.032V66.2a10.671,10.671,0,0,0,1.791.261,4.5,4.5,0,0,0,3.145-.839,5.013,5.013,0,0,0,1.524-2.476,11.66,11.66,0,0,0,.459-2.861,1.5,1.5,0,0,1,2.527-1.014A4.889,4.889,0,0,0,18.251,60.388Zm25.4,12.931a13.02,13.02,0,0,0-3.933,2.261,3.42,3.42,0,0,0-1.383,2.374v6.08h.584a5.761,5.761,0,0,1,5.055,8.528H58.369a5.767,5.767,0,0,1,5.06-8.528h.578v-6.08a3.531,3.531,0,0,0-1.485-2.465,13.939,13.939,0,0,0-4.239-2.329c-.193.232-.4.459-.606.669a9.555,9.555,0,0,1-13.548,0q-.247-.247-.476-.51ZM12.494,19.267a1.5,1.5,0,0,1,0-3H40.248a1.5,1.5,0,0,1,0,3Zm0,15.775a1.5,1.5,0,0,1,0-3H26.371a1.5,1.5,0,1,1,0,3Zm0-7.887a1.5,1.5,0,0,1,0-3H40.248a1.5,1.5,0,0,1,0,3ZM41.784,43.139a4.144,4.144,0,0,0,.969,1.53,4.19,4.19,0,0,0,2.986,1.241H54.55a1.5,1.5,0,0,1,0,3H45.739a7.161,7.161,0,0,1-5.106-2.13,7.286,7.286,0,0,1-1.961-3.638H17.77l-6.788,6.788a1.5,1.5,0,0,1-2.567-1.054V43.015A9.121,9.121,0,0,1,.828,34.05V17.256A9.112,9.112,0,0,1,9.916,8.167h32.91a9.112,9.112,0,0,1,9.089,9.089v2.777H77.38A7.236,7.236,0,0,1,84.6,27.251V41.689a7.239,7.239,0,0,1-5.723,7.06v5.893a1.5,1.5,0,0,1-2.556,1.06l-6.794-6.794H61.339a1.5,1.5,0,1,1,0-3H70.15a1.481,1.481,0,0,1,1.065.448l4.663,4.663V47.412a1.5,1.5,0,0,1,1.5-1.5A4.237,4.237,0,0,0,81.6,41.689V27.251A4.237,4.237,0,0,0,77.38,23.03H51.915V34.051a9.112,9.112,0,0,1-9.089,9.089H41.784Zm-24.637-3h25.68a6.113,6.113,0,0,0,6.091-6.091V17.256a6.113,6.113,0,0,0-6.091-6.091H9.916a6.114,6.114,0,0,0-6.092,6.091V34.051a6.113,6.113,0,0,0,6.092,6.091,1.5,1.5,0,0,1,1.5,1.5v3.609l4.675-4.669a1.488,1.488,0,0,1,1.06-.442ZM79.029,95.558H23.323v8.692H79.029V95.558Z" fill="#195283"/>
    </g>
  </g>
</svg>
