<svg xmlns="http://www.w3.org/2000/svg" width="140" height="140" viewBox="0 0 140 140">
  <g id="Group_3756" data-name="Group 3756" transform="translate(-578 -2576)">
    <rect id="Rectangle_3289" data-name="Rectangle 3289" width="140" height="140" transform="translate(578 2576)" fill="#195283" opacity="0"/>
    <g id="surface1" transform="translate(598 2595.5)">
      <path id="Path_15943" data-name="Path 15943" d="M537.267,686.156a7.431,7.431,0,1,0,7.431,7.431A7.431,7.431,0,0,0,537.267,686.156Zm0,11.559a4.128,4.128,0,1,1,4.128-4.128A4.128,4.128,0,0,1,537.267,697.715Zm0,0" transform="translate(-473.689 -612.997)" fill="#195283"/>
      <path id="Path_15944" data-name="Path 15944" d="M693.1,795.234a7.432,7.432,0,1,0,7.432,7.432A7.433,7.433,0,0,0,693.1,795.234Zm0,11.56a4.128,4.128,0,1,1,4.129-4.128A4.128,4.128,0,0,1,693.1,806.794Zm0,0" transform="translate(-613.004 -710.516)" fill="#195283"/>
      <path id="Path_15945" data-name="Path 15945" d="M1.427,228.567a6.386,6.386,0,0,1,5.247,5.249,1.652,1.652,0,0,0,3.257,0,6.385,6.385,0,0,1,5.247-5.249,1.651,1.651,0,0,0,0-3.257,6.388,6.388,0,0,1-5.247-5.25,1.652,1.652,0,0,0-3.257,0,6.389,6.389,0,0,1-5.247,5.25,1.652,1.652,0,0,0,0,3.257ZM8.3,224.58a9.683,9.683,0,0,0,2.359,2.358A9.684,9.684,0,0,0,8.3,229.3a9.69,9.69,0,0,0-2.358-2.358A9.688,9.688,0,0,0,8.3,224.58Zm0,0" transform="translate(-0.046 -195.063)" fill="#195283"/>
      <path id="Path_15946" data-name="Path 15946" d="M209.6,20.48,168.32.664a1.648,1.648,0,0,0-1.433,0L125.6,20.578a1.652,1.652,0,0,0-.087,2.93L166.8,46.531a1.647,1.647,0,0,0,1.61,0l20.661-11.574V56.694a28,28,0,0,0-16.8,6.888l-4.666,4.08-.8-.7-2.174,2.477,1.888,1.652a1.649,1.649,0,0,0,2.173,0l5.755-5.033a24.709,24.709,0,0,1,16.277-6.111,1.651,1.651,0,0,0,1.652-1.651V33.107l8.257-4.624v13.3a1.65,1.65,0,0,0-1.612,1.293l-3.3,14.863a1.651,1.651,0,0,0,1.613,2.008h9.908a1.65,1.65,0,0,0,1.613-2.008l-3.3-14.863a1.652,1.652,0,0,0-1.614-1.293V26.634l5.76-3.225a1.651,1.651,0,0,0-.091-2.929Zm-4.425,36.165h-5.79l2.564-11.56h.661Zm-2.665-33c-.019,0-.037-.014-.058-.019L172.3,20.452a4.939,4.939,0,1,0-.09,3.312l25.329,2.662L167.6,43.193,129.9,22.17,167.6,3.983l37.7,18.1Zm-33.258-1.678a1.651,1.651,0,1,1-1.651-1.651A1.651,1.651,0,0,1,169.256,21.966Zm0,0" transform="translate(-111.458)" fill="#195283"/>
      <path id="Path_15947" data-name="Path 15947" d="M708.681,623.82a7.431,7.431,0,1,0,7.432,7.431A7.431,7.431,0,0,0,708.681,623.82Zm0,11.56a4.129,4.129,0,1,1,4.129-4.129A4.129,4.129,0,0,1,708.681,635.38Zm0,0" transform="translate(-626.938 -557.267)" fill="#195283"/>
      <path id="Path_15948" data-name="Path 15948" d="M51.192,407.824V393.645a23.141,23.141,0,0,0-14.587-21.468l4.492-8.635a1.65,1.65,0,0,0-.573-2.146l-1.651-1.059a8.754,8.754,0,0,0-8.457-.508,5.461,5.461,0,0,1-4.684,0,8.738,8.738,0,0,0-8.456.508L15.626,361.4a1.65,1.65,0,0,0-.573,2.146l4.488,8.635A23.144,23.144,0,0,0,4.954,393.645v14.178l-3.445,3.444a5.155,5.155,0,0,0,3.645,8.8H50.993a5.155,5.155,0,0,0,3.645-8.8ZM18.675,363.357l.383-.246A5.428,5.428,0,0,1,24.3,362.8a8.776,8.776,0,0,0,7.546,0,5.427,5.427,0,0,1,5.242.313l.383.246-4.063,7.814a22.356,22.356,0,0,0-10.669,0Zm32.318,53.407H5.154A1.851,1.851,0,0,1,3.845,413.6l3.928-3.928a1.646,1.646,0,0,0,.485-1.168V393.645a19.816,19.816,0,1,1,39.632,0v14.862a1.65,1.65,0,0,0,.485,1.168L52.3,413.6a1.852,1.852,0,0,1-1.31,3.161Zm0,0" transform="translate(0 -320.486)" fill="#195283"/>
      <path id="Path_15949" data-name="Path 15949" d="M210.839,602.561h-3.3a1.652,1.652,0,1,1,0-3.3h6.606v-3.3h-3.3v-3.3h-3.3v3.3a4.954,4.954,0,1,0,0,9.908h3.3a1.652,1.652,0,1,1,0,3.3h-6.606v3.3h3.3v3.3h3.3v-3.3a4.954,4.954,0,1,0,0-9.908Zm0,0" transform="translate(-181.114 -529.402)" fill="#195283"/>
    </g>
  </g>
</svg>
